<svg width="28" height="21" viewBox="0 0 28 21" fill="none" xmlns="http://www.w3.org/2000/svg">
<path d="M26.5266 9.0008H4.87448L11.3913 2.484C11.5089 2.37042 11.6027 2.23456 11.6672 2.08435C11.7317 1.93414 11.7657 1.77258 11.7671 1.6091C11.7685 1.44562 11.7374 1.28349 11.6755 1.13218C11.6136 0.98087 11.5222 0.843403 11.4065 0.727801C11.2909 0.612199 11.1535 0.520778 11.0022 0.458871C10.8509 0.396965 10.6887 0.365813 10.5253 0.367234C10.3618 0.368655 10.2002 0.402619 10.05 0.467146C9.89979 0.531672 9.76393 0.625469 9.65035 0.743062L1.03187 9.36155C0.801052 9.59243 0.671387 9.90554 0.671387 10.232C0.671387 10.5585 0.801052 10.8716 1.03187 11.1025L9.65035 19.721C9.88256 19.9452 10.1936 20.0693 10.5164 20.0665C10.8392 20.0637 11.148 19.9342 11.3763 19.706C11.6046 19.4777 11.7341 19.1689 11.7369 18.8461C11.7397 18.5232 11.6156 18.2122 11.3913 17.98L4.87448 11.4632H26.5266C26.8531 11.4632 27.1663 11.3335 27.3972 11.1026C27.6281 10.8717 27.7578 10.5585 27.7578 10.232C27.7578 9.90547 27.6281 9.59231 27.3972 9.36141C27.1663 9.13052 26.8531 9.0008 26.5266 9.0008Z" fill="#808080"/>
</svg>
